<svg xmlns="http://www.w3.org/2000/svg" width="24" height="24" fill="none"><g clip-path="url(#a)"><path d="M12 24c6.627 0 12-5.373 12-12S18.627 0 12 0 0 5.373 0 12s5.373 12 12 12Z" fill="#204FFE"/><path d="M12.373 3v6.652l5.623 2.513L12.374 3Z" fill="#fff" fill-opacity=".602"/><path d="M12.373 3 6.75 12.165l5.623-2.512V3Z" fill="#fff"/><path d="M12.373 16.476v4.52L18 13.212l-5.627 3.264Z" fill="#fff" fill-opacity=".602"/><path d="M12.373 20.996v-4.52L6.75 13.211l5.623 7.784Z" fill="#fff"/><path d="m12.373 15.43 5.623-3.265-5.622-2.51v5.775Z" fill="#fff" fill-opacity=".2"/><path d="m6.75 12.165 5.623 3.265V9.654L6.75 12.165Z" fill="#fff" fill-opacity=".602"/></g><defs><clipPath id="a"><path fill="#fff" d="M0 0h24v24H0z"/></clipPath></defs></svg>