<svg aria-hidden="true" style="position: absolute; width: 0; height: 0; overflow: hidden;" version="1.1" xmlns="http://www.w3.org/2000/svg" xmlns:xlink="http://www.w3.org/1999/xlink">
<defs>
<symbol id="logo" viewBox="0 0 56 32">
<path d="M5.451 31.2c-0.014 0-0.031 0-0.048 0-1.001 0-1.939-0.271-2.744-0.744l0.026 0.014c-0.802-0.506-1.458-1.172-1.937-1.958l-0.015-0.026c-0.461-0.757-0.733-1.672-0.733-2.651 0-0.023 0-0.046 0-0.069l-0 0.003v-12.643c0-0.998 0.245-1.904 0.733-2.715 0.487-0.805 1.145-1.46 1.927-1.93l0.025-0.014c0.775-0.483 1.717-0.77 2.725-0.77 0.015 0 0.029 0 0.044 0h13.707v-7.698h4.84v31.2h-18.549zM5.654 26.378h12.733c0.009 0 0.019 0.001 0.029 0.001 0.194 0 0.37-0.077 0.499-0.202l-0 0c0.151-0.142 0.245-0.343 0.245-0.566 0-0.001 0-0.002 0-0.002v0-12.317c0-0.005 0-0.012 0-0.018 0-0.206-0.095-0.389-0.244-0.509l-0.001-0.001c-0.121-0.149-0.305-0.243-0.51-0.243-0.006 0-0.013 0-0.019 0l0.001-0h-12.733c-0.001 0-0.002 0-0.003 0-0.223 0-0.424 0.093-0.567 0.243l-0 0c-0.126 0.128-0.204 0.304-0.204 0.498 0 0.011 0 0.021 0.001 0.031l-0-0.002v12.317c0 0.216 0.067 0.405 0.203 0.568 0.149 0.125 0.343 0.202 0.555 0.202 0.005 0 0.010-0 0.016-0h-0.001z"></path>
<path d="M55.2 28.090l-9.778-8.89 9.778-8.89-3.422-3.11-9.778 8.89-9.778-8.89-3.422 3.11 9.778 8.89-9.778 8.89 3.422 3.11 9.778-8.89 9.778 8.89 3.422-3.11z"></path>
</symbol>
<symbol id="logout" viewBox="0 0 32 32">
<path d="M24 5.333v-5.333h-21.333v32h21.333v-5.333h-2.667v2.667h-16v-26.667h16v2.667z"></path>
<path d="M22.115 8.781l-1.885 1.885 4 4h-10.896v2.667h10.896l-4 4 1.885 1.885 7.219-7.219z"></path>
</symbol>
</defs>
</svg>
