<svg xmlns="http://www.w3.org/2000/svg" width="65" height="64" viewBox="0 0 65 64" fill="none">
<path d="M32.316 5.48802C32.6462 5.0748 33.0552 4.73118 33.5191 4.47706C33.983 4.22293 34.4928 4.06335 35.0188 4.00755C35.5448 3.95175 36.0767 4.00083 36.5836 4.15197C37.0905 4.3031 37.5624 4.55328 37.972 4.88802L51.02 15.544C51.7376 16.1299 52.2295 16.9467 52.4119 17.8549C52.5943 18.7632 52.4558 19.7065 52.02 20.524C50.8792 20.1754 49.6929 19.9988 48.5 20H47.3L48.492 18.64L41.62 13.028L35.952 20.004H30.796L38.52 10.5L35.44 7.98402L25.848 20H20.728L32.316 5.48802ZM42.5 40C41.9696 40 41.4609 40.2107 41.0858 40.5858C40.7107 40.9609 40.5 41.4696 40.5 42C40.5 42.5305 40.7107 43.0392 41.0858 43.4142C41.4609 43.7893 41.9696 44 42.5 44H46.5C47.0304 44 47.5391 43.7893 47.9142 43.4142C48.2893 43.0392 48.5 42.5305 48.5 42C48.5 41.4696 48.2893 40.9609 47.9142 40.5858C47.5391 40.2107 47.0304 40 46.5 40H42.5ZM12.5 22C12.5 21.4696 12.7107 20.9609 13.0858 20.5858C13.4609 20.2107 13.9696 20 14.5 20H16.732L19.912 16H14.5C12.9087 16 11.3826 16.6322 10.2574 17.7574C9.13214 18.8826 8.5 20.4087 8.5 22V46C8.5 48.6522 9.55357 51.1957 11.4289 53.0711C13.3043 54.9465 15.8478 56 18.5 56H48.5C50.6217 56 52.6566 55.1572 54.1569 53.6569C55.6571 52.1566 56.5 50.1218 56.5 48V32C56.5 29.8783 55.6571 27.8435 54.1569 26.3432C52.6566 24.8429 50.6217 24 48.5 24H14.5C13.9696 24 13.4609 23.7893 13.0858 23.4142C12.7107 23.0392 12.5 22.5305 12.5 22ZM12.5 46V27.66C13.124 27.88 13.8 28 14.5 28H48.5C49.5609 28 50.5783 28.4215 51.3284 29.1716C52.0786 29.9217 52.5 30.9392 52.5 32V48C52.5 49.0609 52.0786 50.0783 51.3284 50.8284C50.5783 51.5786 49.5609 52 48.5 52H18.5C16.9087 52 15.3826 51.3679 14.2574 50.2427C13.1321 49.1174 12.5 47.5913 12.5 46Z" fill="#204FFE"/>
</svg>